<svg width="1920" height="961" fill="none" xmlns="http://www.w3.org/2000/svg"><path d="M1920 0c0 530.193-429.81 960-960 960C429.807 960 0 530.193 0 0s429.807-960 960-960c530.19 0 960 429.807 960 960z" stroke="url(#paint0_linear_67_2809)" stroke-width="2"/><path d="M1745 0c0 433.544-351.46 785-785 785-433.544 0-785-351.456-785-785s351.456-785 785-785c433.54 0 785 351.456 785 785z" stroke="url(#paint1_linear_67_2809)" stroke-width="2"/><path d="M1557 0c0 329.714-267.29 597-597 597-329.714 0-597-267.286-597-597s267.286-597 597-597c329.71 0 597 267.286 597 597z" stroke="url(#paint2_linear_67_2809)" stroke-width="2"/><path d="M1378 0c0 230.855-187.14 418-418 418-230.855 0-418-187.145-418-418s187.145-418 418-418c230.86 0 418 187.145 418 418z" stroke="url(#paint3_linear_67_2809)" stroke-width="2"/><path d="M1230 0c0 149.117-120.88 270-270 270-149.117 0-270-120.883-270-270 0-149.117 120.883-270 270-270 149.12 0 270 120.883 270 270z" stroke="url(#paint4_linear_67_2809)" stroke-width="2"/><defs><linearGradient id="paint0_linear_67_2809" x1="960" y1="-960" x2="960" y2="960" gradientUnits="userSpaceOnUse"><stop stop-color="#fff"/><stop offset="1" stop-color="#fff" stop-opacity="0"/></linearGradient><linearGradient id="paint1_linear_67_2809" x1="960" y1="-960" x2="960" y2="960" gradientUnits="userSpaceOnUse"><stop stop-color="#fff"/><stop offset="1" stop-color="#fff" stop-opacity="0"/></linearGradient><linearGradient id="paint2_linear_67_2809" x1="960" y1="-960" x2="960" y2="960" gradientUnits="userSpaceOnUse"><stop stop-color="#fff"/><stop offset="1" stop-color="#fff" stop-opacity="0"/></linearGradient><linearGradient id="paint3_linear_67_2809" x1="960" y1="-960" x2="960" y2="960" gradientUnits="userSpaceOnUse"><stop stop-color="#fff"/><stop offset="1" stop-color="#fff" stop-opacity="0"/></linearGradient><linearGradient id="paint4_linear_67_2809" x1="960" y1="-960" x2="960" y2="960" gradientUnits="userSpaceOnUse"><stop stop-color="#fff"/><stop offset="1" stop-color="#fff" stop-opacity="0"/></linearGradient></defs></svg>