<svg width="34" height="34" viewBox="0 0 34 34" fill="none" xmlns="http://www.w3.org/2000/svg">
<path d="M17.0166 14.0893C18.6399 14.0834 19.9328 12.7794 19.9269 11.1526C19.921 9.52517 18.6253 8.23021 17.0013 8.22882C15.3638 8.22708 14.0559 9.54604 14.0684 11.1881C14.0806 12.809 15.3881 14.0953 17.0166 14.0893Z" fill="black"/>
<path d="M17 0C7.61113 0 0 7.61148 0 17C0 26.3885 7.61113 34 17 34C26.3889 34 34 26.3885 34 17C34 7.61148 26.3889 0 17 0ZM17.0243 5.16974C20.3357 5.17878 22.9934 7.8873 22.9763 11.2351C22.9597 14.5057 20.2584 17.1565 16.9527 17.1454C13.6807 17.1343 10.9972 14.4216 11.0167 11.1443C11.0351 7.83131 13.72 5.1607 17.0243 5.16974ZM23.7311 19.4981C22.999 20.2497 22.1176 20.7937 21.1388 21.1732C20.2136 21.5318 19.1997 21.7123 18.1958 21.8327C18.3478 21.9976 18.4191 22.0786 18.5137 22.1732C19.8758 23.5426 21.2445 24.905 22.6021 26.2783C23.0647 26.7464 23.161 27.3266 22.9064 27.8703C22.6285 28.465 22.0049 28.856 21.393 28.8139C21.0056 28.7871 20.7033 28.5948 20.4351 28.3245C19.407 27.2901 18.3593 26.2741 17.3527 25.2202C17.0588 24.9134 16.9183 24.9718 16.6591 25.2383C15.625 26.3033 14.5739 27.3513 13.5169 28.3937C13.0421 28.8619 12.4772 28.9468 11.9263 28.679C11.3409 28.3958 10.9687 27.7979 10.9972 27.1965C11.0174 26.791 11.217 26.48 11.496 26.2024C12.8445 24.8567 14.1889 23.5068 15.5336 22.1579C15.623 22.0685 15.7057 21.9736 15.8355 21.8344C14.0014 21.6428 12.3475 21.1913 10.9315 20.0842C10.7555 19.9464 10.5743 19.8136 10.4143 19.6591C9.79409 19.064 9.73183 18.3819 10.2219 17.68C10.6417 17.079 11.3457 16.9183 12.0779 17.2637C12.2198 17.3301 12.3548 17.4143 12.4842 17.5033C15.1228 19.3165 18.7478 19.3663 21.3969 17.5843C21.6591 17.384 21.9398 17.2191 22.265 17.136C22.8967 16.9732 23.4866 17.2059 23.8254 17.759C24.2132 18.391 24.2087 19.0073 23.7311 19.4981Z" fill="black"/>
</svg>
