<svg width="34" height="34" fill="none" xmlns="http://www.w3.org/2000/svg"><path d="M33.25 16.247h.008a.741.741 0 00.74-.81A17.045 17.045 0 0018.565.002a.742.742 0 00-.81.748c.13 10.894 1.566 15.345 15.494 15.497zm0 1.505c-13.928.152-15.364 4.604-15.493 15.497a.742.742 0 00.81.748 17.043 17.043 0 0015.43-15.435.741.741 0 00-.194-.57.783.783 0 00-.553-.24zM15.384.006A17.052 17.052 0 00.004 15.44a.741.741 0 00.739.809h.009c13.881-.16 15.314-4.609 15.445-15.494a.744.744 0 00-.813-.748zM.751 17.752c-.23-.026-.412.084-.554.238a.744.744 0 00-.194.57 17.052 17.052 0 0015.381 15.433.74.74 0 00.573-.193.744.744 0 00.24-.555C16.065 22.36 14.632 17.911.75 17.752z" fill="#000"/></svg>