<svg width="34" height="34" fill="none" xmlns="http://www.w3.org/2000/svg"><path d="M17 0C7.611 0 0 7.611 0 17s7.611 17 17 17 17-7.611 17-17S26.389 0 17 0zm8.623 18.839c.793.774 1.63 1.502 2.342 2.356.315.378.612.768.838 1.207.323.627.032 1.314-.529 1.351h-3.483c-.9.074-1.615-.289-2.218-.904-.482-.49-.93-1.014-1.393-1.52a3.255 3.255 0 00-.627-.558c-.475-.31-.888-.215-1.16.281-.277.505-.34 1.064-.367 1.626-.038.822-.285 1.036-1.11 1.075-1.76.082-3.43-.185-4.983-1.073-1.37-.783-2.43-1.888-3.354-3.139-1.799-2.439-3.177-5.116-4.414-7.87-.28-.62-.075-.951.609-.964a97.156 97.156 0 013.41-.001c.463.007.769.272.946.708.615 1.512 1.368 2.95 2.311 4.283.252.355.509.71.874.96.404.277.711.185.901-.265.122-.286.175-.592.201-.9.09-1.05.101-2.1-.055-3.147-.098-.655-.466-1.078-1.119-1.202-.332-.063-.284-.186-.122-.376.28-.328.544-.531 1.07-.531h3.934c.62.12.76.4.844 1.024l.003 4.373c-.007.241.122.958.556 1.116.348.115.577-.164.785-.384.944-1.001 1.616-2.183 2.218-3.407.266-.54.495-1.098.718-1.657.165-.413.423-.617.89-.61l3.789.005c.111 0 .225 0 .335.02.639.109.814.384.616 1.007-.31.979-.915 1.794-1.505 2.611-.633.875-1.309 1.72-1.935 2.599-.576.803-.53 1.208.184 1.906z" fill="#000"/></svg>