<svg width="129" height="23" fill="none" xmlns="http://www.w3.org/2000/svg"><path d="M11.448 22.384c-6.4 0-11.36-4.48-11.36-11.04 0-6.56 4.96-11.04 11.36-11.04 4.704 0 7.424 2.56 8.928 5.216l-3.904 1.92c-.896-1.728-2.816-3.104-5.024-3.104-3.872 0-6.688 2.976-6.688 7.008s2.816 7.008 6.688 7.008c2.208 0 4.128-1.344 5.024-3.104l3.904 1.888c-1.536 2.656-4.224 5.248-8.928 5.248zM42.766 22h-5.184l-1.312-3.616h-9.152L25.774 22H20.59L28.846.656h5.696L42.766 22zm-7.744-7.616L31.694 5.2l-3.328 9.184h6.656zm28.723 8c-5.888 0-10.272-3.808-11.04-9.344h-3.424V22h-4.544V.656h4.544V9.04h3.52c.992-5.184 5.28-8.736 10.944-8.736 6.464 0 11.136 4.608 11.136 11.04 0 6.432-4.672 11.04-11.136 11.04zm0-4.032c3.936 0 6.496-3.04 6.496-7.008 0-4-2.56-7.008-6.496-7.008-3.968 0-6.496 3.008-6.496 7.008 0 3.968 2.528 7.008 6.496 7.008z" fill="#FFFBFB"/><path d="M91.936 22h-4.544v-2.144c-6.464-.544-10.304-3.584-10.304-8.512 0-4.896 3.84-7.936 10.304-8.512V.656h4.544v2.176c6.464.576 10.304 3.584 10.304 8.512 0 4.928-3.84 7.968-10.304 8.512V22zM97.6 11.344c0-2.432-1.984-4-5.664-4.448v8.896c3.68-.416 5.664-2.016 5.664-4.448zm-15.84 0c0 2.432 1.952 4 5.632 4.448V6.896c-3.68.448-5.632 2.048-5.632 4.448zM128.623 22h-4.576V7.056L118.031 22h-1.984l-6.016-14.944V22h-4.544V.656h6.368l5.184 12.896L122.223.656h6.4V22z" fill="#000"/></svg>