<svg width="33" height="32" fill="none" xmlns="http://www.w3.org/2000/svg"><path d="M24.273 16.987c-.373-.76-1.426-1.4-2.826-.32-1.907 1.52-4.947 1.52-4.947 1.52s-3.04 0-4.947-1.52c-1.4-1.08-2.453-.44-2.826.32-.667 1.333.08 1.986 1.773 3.066 1.453.934 3.44 1.28 4.72 1.414l-1.067 1.066c-1.52 1.507-2.986 2.96-3.986 3.974-.6.613-.6 1.586 0 2.16l.186.213c.6.6 1.587.6 2.187 0l3.96-3.973c1.533 1.506 2.987 2.96 4 3.973.6.6 1.573.6 2.187 0l.173-.213c.613-.574.613-1.547 0-2.16l-3.973-3.974-1.054-1.08c1.267-.12 3.227-.48 4.667-1.4 1.693-1.08 2.44-1.733 1.773-3.066zM16.5 6.093a3.332 3.332 0 013.333 3.32c0 1.84-1.493 3.32-3.333 3.32a3.323 3.323 0 01-3.333-3.32 3.332 3.332 0 013.333-3.32zm0 10.067a6.737 6.737 0 006.747-6.747 6.747 6.747 0 00-13.494 0A6.737 6.737 0 0016.5 16.16z" fill="#000"/></svg>