<svg width="46" height="46" fill="none" xmlns="http://www.w3.org/2000/svg"><path d="M2.2.6A1.6 1.6 0 00.6 2.2V15a1.6 1.6 0 003.2 0V6.062l10.067 10.07a1.602 1.602 0 002.265-2.265L6.062 3.8H15a1.6 1.6 0 100-3.2H2.2zm0 44.8a1.6 1.6 0 01-1.6-1.6V31a1.6 1.6 0 013.2 0v8.938l10.067-10.07a1.602 1.602 0 012.265 2.265L6.062 42.2H15a1.6 1.6 0 010 3.2H2.2zM45.4 2.2A1.6 1.6 0 0043.8.6H31a1.6 1.6 0 000 3.2h8.937l-10.07 10.067a1.602 1.602 0 002.265 2.266L42.2 6.063V15a1.6 1.6 0 003.2 0V2.2zm-1.6 43.2a1.6 1.6 0 001.6-1.6V31a1.6 1.6 0 00-3.2 0v8.938l-10.068-10.07a1.602 1.602 0 00-2.265 2.265L39.937 42.2H31a1.6 1.6 0 000 3.2h12.8z" fill="#fff"/></svg>