<svg width="32" height="32" fill="none" xmlns="http://www.w3.org/2000/svg"><path d="M28.672 24.508h-3.043c-1.15 0-1.497-.932-3.56-2.996-1.802-1.737-2.564-1.953-3.02-1.953-.63 0-.802.173-.802 1.041v2.736c0 .74-.24 1.174-2.174 1.174A11.868 11.868 0 016.8 18.95 24.24 24.24 0 012 8.872c0-.456.173-.87 1.043-.87h3.04c.781 0 1.062.349 1.369 1.153 1.476 4.344 3.995 8.123 5.017 8.123.392 0 .563-.174.563-1.151v-4.475c-.13-2.041-1.213-2.213-1.213-2.952a.75.75 0 01.78-.697h4.778c.654 0 .87.325.87 1.106v6.04c0 .653.28.868.477.868.392 0 .693-.215 1.412-.933a25.014 25.014 0 003.736-6.213 1.31 1.31 0 011.324-.867h3.041c.912 0 1.106.456.912 1.107a37.955 37.955 0 01-4.082 7.016c-.328.5-.459.76 0 1.347.301.456 1.368 1.346 2.084 2.193a13.538 13.538 0 012.562 3.56c.262.848-.173 1.281-1.041 1.281z" fill="#000"/></svg>