<svg width="64" height="64" fill="none" xmlns="http://www.w3.org/2000/svg"><path d="M5.342 31.243c.098-4.915.149-7.371 1.781-9.472.33-.417.699-.802 1.101-1.15 2.006-1.696 4.656-1.696 9.955-1.696 1.893 0 2.84 0 3.741-.245.187-.053.374-.112.558-.179.88-.322 1.672-.88 3.253-1.989 6.235-4.387 9.355-6.579 11.97-5.627.502.184.987.448 1.422.774 2.261 1.693 2.435 5.64 2.779 13.528.112 2.27.183 4.54.213 6.813 0 1.39-.085 3.893-.213 6.813-.347 7.888-.518 11.835-2.779 13.528a5.624 5.624 0 01-1.421.774c-2.619.952-5.734-1.24-11.974-5.627-1.578-1.11-2.37-1.667-3.253-1.99a6.91 6.91 0 00-.555-.178c-.901-.245-1.848-.245-3.741-.245-5.299 0-7.947 0-9.955-1.696a8.39 8.39 0 01-1.101-1.147c-1.632-2.107-1.68-4.56-1.781-9.472a37.37 37.37 0 010-1.517z" fill="#000"/><path fill-rule="evenodd" clip-rule="evenodd" d="M51.973 14.805a1.759 1.759 0 012.587.251l-1.411 1.256 1.413-1.253.006.005.008.01.018.025c.073.097.143.197.211.298.125.19.296.462.496.814.397.704.904 1.738 1.403 3.122C57.706 22.11 58.666 26.27 58.666 32c0 5.733-.96 9.893-1.962 12.667a20.626 20.626 0 01-1.403 3.125 12.41 12.41 0 01-.707 1.112l-.018.024-.008.008-.003.005s-.003.003-1.416-1.253l1.413 1.256a1.759 1.759 0 01-2.589.25 2.053 2.053 0 01-.24-2.76l.08-.109a9.54 9.54 0 00.333-.552 16.75 16.75 0 001.126-2.514c.837-2.323 1.717-6.008 1.717-11.259 0-5.253-.88-8.933-1.717-11.259a16.74 16.74 0 00-1.126-2.512 8.392 8.392 0 00-.418-.674m-4.376 4.888c.888-.526 2.008-.187 2.501.762l.003.006.005.008.008.018.027.048.064.142c.048.112.112.264.186.453.142.387.32.933.494 1.653.346 1.44.672 3.566.672 6.467 0 2.904-.326 5.03-.672 6.47-.174.72-.352 1.266-.496 1.65-.076.202-.16.4-.251.595l-.024.048-.008.018-.005.008v.006s-.003.002-1.611-.95l1.608.952c-.493.947-1.613 1.288-2.501.763-.88-.523-1.2-1.701-.726-2.643l.011-.026.093-.227c.086-.23.214-.613.347-1.168.267-1.11.555-2.907.555-5.493 0-2.59-.288-4.387-.555-5.494a10.03 10.03 0 00-.44-1.397l-.01-.027a2.027 2.027 0 01.725-2.642z" fill="#000"/></svg>