<svg width="32" height="32" fill="none" xmlns="http://www.w3.org/2000/svg"><path d="M27.027 21.687l.94-5.44a2.221 2.221 0 00-2.187-2.6h-6.908a1.112 1.112 0 01-1.096-1.292l.884-5.394a6.378 6.378 0 00-.12-2.63 2.18 2.18 0 00-1.456-1.516l-.193-.063a1.795 1.795 0 00-1.325.09 1.686 1.686 0 00-.907 1.091l-.635 2.446c-.202.778-.495 1.53-.874 2.238-.554 1.036-1.41 1.867-2.3 2.634l-1.92 1.653a2.226 2.226 0 00-.762 1.875l1.083 12.524a2.221 2.221 0 002.212 2.03h6.197c4.643 0 8.604-3.234 9.367-7.646z" fill="#1C3898"/><path fill-rule="evenodd" clip-rule="evenodd" d="M3.957 12.647a1 1 0 011.04.913l1.294 14.981a1.65 1.65 0 11-3.29.143V13.645a1 1 0 01.956-.998z" fill="#1C3898"/></svg>