<svg width="141" height="28" viewBox="0 0 141 28" fill="none" xmlns="http://www.w3.org/2000/svg">
<path d="M13.176 27.2481C11.232 27.2481 9.444 26.9481 7.812 26.3481C6.204 25.7241 4.812 24.8481 3.636 23.7201C2.484 22.5681 1.584 21.1761 0.936 19.5441C0.312 17.9121 0 16.0641 0 14.0001C0 11.9361 0.312 10.0881 0.936 8.45607C1.56 6.80007 2.436 5.40807 3.564 4.28007C4.716 3.12806 6.084 2.25206 7.668 1.65207C9.252 1.05207 11.016 0.752066 12.96 0.752066C14.712 0.752066 16.2 0.932066 17.424 1.29207C18.648 1.62807 19.608 2.00007 20.304 2.40807L19.656 6.33207C18.816 5.82807 17.856 5.42007 16.776 5.10807C15.696 4.77207 14.484 4.60407 13.14 4.60407C10.5 4.60407 8.448 5.39607 6.984 6.98007C5.52 8.54007 4.788 10.8801 4.788 14.0001C4.788 17.1441 5.532 19.4961 7.02 21.0561C8.532 22.5921 10.668 23.3601 13.428 23.3601C14.58 23.3601 15.624 23.2161 16.56 22.9281C17.496 22.6161 18.384 22.1961 19.224 21.6681L20.412 25.2681C19.74 25.7481 18.792 26.2041 17.568 26.6361C16.368 27.0441 14.904 27.2481 13.176 27.2481Z" fill="#FFFBFB"/>
<path d="M33.4648 5.28807L29.7568 16.5201H37.1728L33.4648 5.28807ZM38.3968 20.2281H28.5328L26.3368 26.8881H22.3048L30.8728 1.11207H36.7048L45.2728 26.8881H40.5928L38.3968 20.2281Z" fill="#FFFBFB"/>
<path d="M68.5946 27.2841C67.0346 27.2841 65.5706 27.0441 64.2026 26.5641C62.8346 26.0841 61.6226 25.3641 60.5666 24.4041C59.5106 23.4441 58.6346 22.2681 57.9386 20.8761C57.2666 19.4601 56.8466 17.8281 56.6786 15.9801H53.2946V26.8881H48.7226V1.11207H53.2946V12.1281H56.7146C56.8826 10.3041 57.3026 8.68407 57.9746 7.26807C58.6706 5.82807 59.5346 4.62807 60.5666 3.66807C61.6226 2.70806 62.8346 1.97606 64.2026 1.47207C65.5706 0.968065 67.0346 0.716064 68.5946 0.716064C70.2746 0.716064 71.8466 1.00407 73.3106 1.58007C74.7746 2.13207 76.0466 2.96007 77.1266 4.06407C78.2066 5.16807 79.0586 6.54807 79.6826 8.20406C80.3066 9.83607 80.6186 11.7321 80.6186 13.8921C80.6186 16.0521 80.3066 17.9601 79.6826 19.6161C79.0586 21.2721 78.2066 22.6761 77.1266 23.8281C76.0466 24.9561 74.7746 25.8201 73.3106 26.4201C71.8466 26.9961 70.2746 27.2841 68.5946 27.2841ZM68.5946 23.3961C69.6266 23.3961 70.5866 23.2281 71.4746 22.8921C72.3626 22.5561 73.1306 22.0161 73.7786 21.2721C74.4266 20.5041 74.9306 19.5321 75.2906 18.3561C75.6506 17.1561 75.8306 15.7041 75.8306 14.0001C75.8306 12.2961 75.6506 10.8441 75.2906 9.64407C74.9306 8.44407 74.4266 7.47207 73.7786 6.72807C73.1306 5.98407 72.3626 5.44407 71.4746 5.10807C70.5866 4.77207 69.6266 4.60407 68.5946 4.60407C67.5626 4.60407 66.6026 4.77207 65.7146 5.10807C64.8506 5.44407 64.0946 5.98407 63.4466 6.72807C62.7986 7.47207 62.2946 8.44407 61.9346 9.64407C61.5746 10.8441 61.3946 12.2961 61.3946 14.0001C61.3946 15.7041 61.5746 17.1561 61.9346 18.3561C62.2946 19.5321 62.7986 20.5041 63.4466 21.2721C64.0946 22.0161 64.8506 22.5561 65.7146 22.8921C66.6026 23.2281 67.5626 23.3961 68.5946 23.3961Z" fill="#FFFBFB"/>
<path d="M94.7264 27.2481V24.0801C93.1184 24.0321 91.6184 23.7921 90.2264 23.3601C88.8584 22.9281 87.6584 22.2921 86.6264 21.4521C85.6184 20.6121 84.8264 19.5801 84.2504 18.3561C83.6744 17.1321 83.3864 15.7041 83.3864 14.0721C83.3864 12.4401 83.6744 11.0121 84.2504 9.78807C84.8264 8.54007 85.6184 7.49607 86.6264 6.65606C87.6584 5.81607 88.8584 5.18007 90.2264 4.74807C91.6184 4.29207 93.1184 4.04007 94.7264 3.99207V0.788066H99.3344V3.99207C100.942 4.04007 102.442 4.28007 103.834 4.71206C105.226 5.14406 106.426 5.78007 107.434 6.62007C108.442 7.46007 109.234 8.49207 109.81 9.71607C110.386 10.9401 110.674 12.3681 110.674 14.0001C110.674 15.6321 110.386 17.0721 109.81 18.3201C109.234 19.5441 108.43 20.5761 107.398 21.4161C106.39 22.2561 105.19 22.9041 103.798 23.3601C102.43 23.7921 100.942 24.0321 99.3344 24.0801V27.2481H94.7264ZM88.0304 14.0361C88.0304 15.2361 88.1984 16.2441 88.5344 17.0601C88.8944 17.8761 89.3744 18.5481 89.9744 19.0761C90.5744 19.5801 91.2824 19.9521 92.0984 20.1921C92.9144 20.4321 93.7904 20.5761 94.7264 20.6241V7.48407C93.7904 7.53207 92.9144 7.67607 92.0984 7.91607C91.2824 8.15607 90.5744 8.54007 89.9744 9.06807C89.3744 9.57207 88.8944 10.2321 88.5344 11.0481C88.1984 11.8641 88.0304 12.8601 88.0304 14.0361ZM105.994 14.0721C105.994 12.8721 105.826 11.8641 105.49 11.0481C105.154 10.2321 104.686 9.57207 104.086 9.06807C103.486 8.54007 102.778 8.15607 101.962 7.91607C101.146 7.67607 100.27 7.53207 99.3344 7.48407V20.6241C100.294 20.5761 101.17 20.4321 101.962 20.1921C102.778 19.9521 103.486 19.5801 104.086 19.0761C104.686 18.5481 105.154 17.8761 105.49 17.0601C105.826 16.2441 105.994 15.2481 105.994 14.0721Z" fill="black"/>
<path d="M118.85 7.48407V26.8881H114.746V1.11207H120.83L127.814 17.9961L135.338 1.11207H140.918V26.8881H136.346V7.77207L129.542 22.9281H125.474L118.85 7.48407Z" fill="black"/>
</svg>
