<svg width="33" height="32" fill="none" xmlns="http://www.w3.org/2000/svg"><path d="M27.092 28l-8.4-8.4a8.127 8.127 0 01-5.067 1.733c-2.422 0-4.471-.839-6.149-2.517-1.677-1.678-2.516-3.728-2.517-6.15 0-2.422.84-4.471 2.517-6.149C9.155 4.84 11.204 4.001 13.626 4c2.422 0 4.472.84 6.15 2.517 1.678 1.679 2.517 3.728 2.516 6.15a8.127 8.127 0 01-1.733 5.066l8.4 8.4L27.092 28zm-13.466-9.333c1.666 0 3.083-.583 4.25-1.75 1.167-1.166 1.75-2.583 1.75-4.25 0-1.667-.584-3.083-1.75-4.25-1.166-1.166-2.583-1.75-4.25-1.75-1.667 0-3.083.583-4.25 1.75-1.166 1.167-1.75 2.584-1.75 4.25s.583 3.083 1.75 4.25c1.167 1.167 2.584 1.75 4.25 1.75z" fill="#FFFBFB"/></svg>