<svg width="258" height="258" fill="none" xmlns="http://www.w3.org/2000/svg"><path fill-rule="evenodd" clip-rule="evenodd" d="M129 257c70.692 0 128-57.308 128-128C257 58.308 199.692 1 129 1 58.308 1 1 58.308 1 129c0 70.692 57.308 128 128 128zm0-120a8 8 0 100-16 8 8 0 000 16z" fill="#000"/><path fill-rule="evenodd" clip-rule="evenodd" d="M129 257c70.692 0 128-57.308 128-128C257 58.308 199.692 1 129 1 58.308 1 1 58.308 1 129c0 70.692 57.308 128 128 128zm0-120a8 8 0 100-16 8 8 0 000 16z" fill="url(#paint0_radial_5_2212)" fill-opacity=".2"/><path clip-rule="evenodd" d="M129 257c70.692 0 128-57.308 128-128C257 58.308 199.692 1 129 1 58.308 1 1 58.308 1 129c0 70.692 57.308 128 128 128zm0-120a8 8 0 100-16 8 8 0 000 16z" stroke="url(#paint1_linear_5_2212)" stroke-opacity=".2"/><path d="M244.5 129c0 63.789-51.711 115.5-115.5 115.5S13.5 192.789 13.5 129 65.211 13.5 129 13.5 244.5 65.211 244.5 129z" stroke="url(#paint2_linear_5_2212)" stroke-opacity=".2"/><path d="M231.5 129c0 56.609-45.891 102.5-102.5 102.5-56.61 0-102.5-45.891-102.5-102.5C26.5 72.39 72.39 26.5 129 26.5c56.609 0 102.5 45.89 102.5 102.5z" stroke="url(#paint3_linear_5_2212)" stroke-opacity=".2"/><path d="M218.5 129c0 49.429-40.071 89.5-89.5 89.5-49.43 0-89.5-40.071-89.5-89.5 0-49.43 40.07-89.5 89.5-89.5 49.429 0 89.5 40.07 89.5 89.5z" stroke="url(#paint4_linear_5_2212)" stroke-opacity=".2"/><path d="M206 129c0 42.526-34.474 77-77 77s-77-34.474-77-77 34.474-77 77-77 77 34.474 77 77z" stroke="url(#paint5_linear_5_2212)" stroke-opacity=".2"/><defs><linearGradient id="paint1_linear_5_2212" x1="129" y1="13.5" x2="129" y2="244.5" gradientUnits="userSpaceOnUse"><stop stop-color="#fff"/><stop offset="1" stop-color="#fff" stop-opacity="0"/></linearGradient><linearGradient id="paint2_linear_5_2212" x1="129" y1="13.5" x2="129" y2="244.5" gradientUnits="userSpaceOnUse"><stop stop-color="#fff"/><stop offset="1" stop-color="#fff" stop-opacity="0"/></linearGradient><linearGradient id="paint3_linear_5_2212" x1="129" y1="13.5" x2="129" y2="244.5" gradientUnits="userSpaceOnUse"><stop stop-color="#fff"/><stop offset="1" stop-color="#fff" stop-opacity="0"/></linearGradient><linearGradient id="paint4_linear_5_2212" x1="129" y1="13.5" x2="129" y2="244.5" gradientUnits="userSpaceOnUse"><stop stop-color="#fff"/><stop offset="1" stop-color="#fff" stop-opacity="0"/></linearGradient><linearGradient id="paint5_linear_5_2212" x1="129" y1="13.5" x2="129" y2="244.5" gradientUnits="userSpaceOnUse"><stop stop-color="#fff"/><stop offset="1" stop-color="#fff" stop-opacity="0"/></linearGradient><radialGradient id="paint0_radial_5_2212" cx="0" cy="0" r="1" gradientUnits="userSpaceOnUse" gradientTransform="rotate(-139.074 152.99 64.24) scale(191.58)"><stop stop-color="#fff"/><stop offset="1" stop-color="#fff" stop-opacity="0"/></radialGradient></defs></svg>